<svg width="440" height="376" viewBox="0 0 440 376" fill="none" xmlns="http://www.w3.org/2000/svg">
<rect x="19" y="20" width="401" height="81" fill="url(#paint0_linear_22_106)"/>
<path d="M12 108H428" stroke="black" stroke-width="24" stroke-miterlimit="10" stroke-linecap="round" stroke-linejoin="round"/>
<path d="M76 76C71.2 76 68 74.4 64.8 71.2C61.6 68 60 64.8 60 60C60 55.2 61.6 52 64.8 48.8L66.4 47.2C68 47.2 68 45.6 69.6 45.6C71.2 44 71.2 44 72.8 44C74.4 44 77.6 44 79.2 44C80.8 44 80.8 44 82.4 45.6C84 45.6 84 47.2 85.6 47.2L87.2 48.8C88.8 50.4 90.4 52 90.4 53.6C92 55.2 92 58.4 92 60C92 61.6 92 64.8 90.4 66.4C90.4 68 88.8 69.6 87.2 71.2C84 74.4 80.8 76 76 76Z" fill="black"/>
<path d="M124 76C119.2 76 116 74.4 112.8 71.2C109.6 68 108 64.8 108 60C108 58.4 108 55.2 109.6 53.6C111.2 52 111.2 50.4 112.8 48.8C114.4 47.2 116 45.6 117.6 45.6C124 42.4 130.4 44 135.2 48.8C136.8 50.4 138.4 52 138.4 53.6C140 55.2 140 58.4 140 60C140 64.8 138.4 68 135.2 71.2C132 74.4 128.8 76 124 76Z" fill="black"/>
<path d="M172 76C170.4 76 167.2 76 165.6 74.4C164 72.8 162.4 72.8 160.8 71.2C159.2 69.6 157.6 68 157.6 66.4C156 64.8 156 61.6 156 60C156 58.4 156 55.2 157.6 53.6C159.2 52 159.2 50.4 160.8 48.8C167.2 42.4 176.8 42.4 183.2 48.8C184.8 50.4 186.4 52 186.4 53.6C188 55.2 188 58.4 188 60C188 61.6 188 64.8 186.4 66.4C184.8 68 184.8 69.6 183.2 71.2C180 74.4 176.8 76 172 76Z" fill="black"/>
<path d="M396 12H44C26.4 12 12 26.4 12 44V332C12 349.6 26.4 364 44 364H396C413.6 364 428 349.6 428 332V44C428 26.4 413.6 12 396 12Z" stroke="black" stroke-width="24" stroke-miterlimit="10" stroke-linecap="round" stroke-linejoin="round"/>
<path d="M140 188L92 236L140 284" stroke="black" stroke-width="24" stroke-miterlimit="10" stroke-linecap="round" stroke-linejoin="round"/>
<path d="M300 188L348 236L300 284" stroke="black" stroke-width="24" stroke-miterlimit="10" stroke-linecap="round" stroke-linejoin="round"/>
<path d="M252 172L188 300" stroke="black" stroke-width="24" stroke-miterlimit="10" stroke-linecap="round" stroke-linejoin="round"/>
<defs>
<linearGradient id="paint0_linear_22_106" x1="19" y1="20" x2="415.036" y2="120.552" gradientUnits="userSpaceOnUse">
<stop stop-color="#EF32D9"/>
<stop offset="1" stop-color="#89FFFD"/>
</linearGradient>
</defs>
</svg>
